<svg viewBox="0 0 999 999" xmlns="http://www.w3.org/2000/svg"><g transform="matrix(2.4975,0,0,2.4975,0,0)"><g transform="matrix(2,0,0,2,0,0)"><path d="M51.852,83.658c-5.144,4.043-4.981-5.824-2.572-4.96.547.2,2.545,2.2,2.94.918.172-.555-1.286-6.8-1.837-8.084a24.8,24.8,0,0,0,8.451-11.943c0-.551-1.469.184-1.469.184a5.435,5.435,0,0,0,.367-2.389.345.345,0,0,0-.551,0c-.919,1.838-3.123,2.2-4.961,2.389-2.2,0-9.922-1.1-12.678.184-1.286.551-2.756,2.388-2.2,5.7,0,.368.551,2.573.918,2.756a7.867,7.867,0,0,1,4.042,1.1c.184.183,0,.367-.183.367-.735,0-1.287-.184-1.838-.184-2.572-.183-6.247-.183-6.614,3.124-.368,2.572.551,5.145,1.47,7.35,1.1,2.755,7.165,11.759,7.9,12.126a2.427,2.427,0,0,0,.76-.106c.191,1.934.542,3.86.894,5.618.183,1.1,1.286,1.286,1.1,0-.523-1.918-.881-3.836-1.387-5.754,2.617-.612,8.162-2.178,9.288-2.881C54.058,88.987,52.4,83.107,51.852,83.658Zm2.022-21.129a.4.4,0,0,1,.367.367c0,1.133-3.534,1.8-3.675,1.838-.183,0-.367-.368-.183-.368C50.587,64.161,53.37,62.361,53.874,62.529ZM44.5,85.312a.18.18,0,0,1-.184.184c-.551.184-1.1-.368-1.286-.735a16.558,16.558,0,0,1-1.1-1.47,11.078,11.078,0,0,0,1.1,4.226.612.612,0,0,1-.918.735,18.76,18.76,0,0,1-3.124-4.41c-.882-1.673-1.837-3.307-1.653-5.328,0-.184.367-.368.367,0a14.207,14.207,0,0,0,2.2,4.777A12.339,12.339,0,0,0,41.2,85.312a8.149,8.149,0,0,1-.184-3.675.482.482,0,0,1,.919-.183C42.767,83.127,44.743,84.352,44.5,85.312ZM40.645,62.161c-.19.09-.348-.027-.184-.183a6.034,6.034,0,0,1,4.961-1.286,31.121,31.121,0,0,0,4.409.367c.1,0,2.716-.327,1.654.735-1.246.934-4.037.479-5.512.184A8.524,8.524,0,0,0,40.645,62.161Z" fill="#043f6d"></path><path d="M61.591,79.616a3.925,3.925,0,0,0,1.469-3.123c0-2.47-2-4.013-3.674-6.064-.908-1.111-2.021-2.021-3.124-3.123-.184-.184-.551,0-.367.367.735.919,1.47,2.022,2.2,2.94,2.162,2.7,3.4,4,3.674,5.512a5.307,5.307,0,0,1-.735,2.756,1.394,1.394,0,0,0-.367-.735c-.184-.183-.429-.17-.368.184.481,2.769,1.1,5.88.184,8.819a6.749,6.749,0,0,1-1.47,2.756c-.735.919-1.837,1.287-2.756,2.022-.184.183-.184.551.184.551,1.286.183,2.388-.735,3.307-1.47A8.94,8.94,0,0,0,61.774,87.7,13.467,13.467,0,0,0,61.591,79.616Z" fill="#043f6d"></path><path d="M92.091,98.725c3.077-.88,4.974-2.12,11.024-5.145,2.31-.77,3.409-1.227,4.409-3.307C116,72.634,117.068,61.091,118,58.3A20.215,20.215,0,0,0,118.365,55c0-.552-.735-.552-.919-.184a55.526,55.526,0,0,0-1.1,5.88,131.358,131.358,0,0,1-7.717,24.988c-.9,2.03-1.47,4.96-3.491,6.063a54.577,54.577,0,0,1-6.247,2.94c-2.225,1.061-4.41,2.388-6.8,3.491C91.539,98.357,91.723,98.725,92.091,98.725Z" fill="#043f6d"></path><path d="M117.079,52.056c-1.1-.919-2.216-1.639-3.491-2.572a5.25,5.25,0,0,1-1.838-1.654,2.924,2.924,0,0,1,0-2.756,20.5,20.5,0,0,1,1.286-2.94c.368-.918.919-1.837,1.287-2.756.183-.367-.368-.735-.735-.367a13.686,13.686,0,0,0-1.654,2.756c-.735,1.653-1.876,3.679-1.654,5.512a4.411,4.411,0,0,0,2.2,2.94c1.3.9,2.756,1.837,4.042,2.572C117.079,52.791,117.446,52.423,117.079,52.056Z" fill="#043f6d"></path><path d="M115.425,42.869c.605-3.327.754-7.094,1.1-9.187.184-1.1.184-2.2.368-3.307.184-.735.367.184.551.368.184.735.545,1.471.735,2.388.534,2.576.735,5.329,1.1,7.9a.462.462,0,0,0,.919,0,29.118,29.118,0,0,0-1.837-11.208,1.376,1.376,0,0,0-1.286-1.1c-1.286,0-1.1,2.2-1.286,2.939a104.274,104.274,0,0,0-.552,10.841C114.874,43.053,115.241,43.053,115.425,42.869Z" fill="#043f6d"></path><path d="M125.163,37.173a4.737,4.737,0,0,1,1.47,2.389,6.949,6.949,0,0,1,0,2.756.82.82,0,0,0,0,.919c.184.183.367,0,.551-.184.72-.72.62-2.663.368-3.675a4.287,4.287,0,0,0-2.205-2.756C125.085,36.529,124.979,36.99,125.163,37.173Z" fill="#043f6d"></path><path d="M129.389,51.137a15.625,15.625,0,0,0,1.286-4.042c.334-2.393.368-5.512-1.286-7.533-.184-.368-.735,0-.551.367a11.333,11.333,0,0,1,.551,6.982c-.368,2.2-1.7,4.022-2.572,6.064-.389.91.925,11.023,1.286,16.168.374,5.328.367,10.657.367,15.985,0,5.145-.361,10.29-.735,15.618a34.277,34.277,0,0,1-1.286,7.533,11.447,11.447,0,0,1-3.123,4.777,29.706,29.706,0,0,1-6.064,4.777c-1.282.741-2.388,1.47-3.674,2.2a25.2,25.2,0,0,0-3.675,2.389c-.368.183,0,.735.367.551a28.876,28.876,0,0,0,6.982-3.491,41.559,41.559,0,0,0,5.7-4.226,19.217,19.217,0,0,0,3.859-4.593,18.77,18.77,0,0,0,1.837-6.982c2.009-14.568,1.167-35.266-1.1-49.793C128.47,53.526,129.205,51.688,129.389,51.137Z" fill="#043f6d"></path><path d="M9.226,151.641c-.26,3.9-2.382,13.641-3.307,17.454C5.093,172.5,5,172.3,5,173.138c0,.367.367.551.735.183a7.994,7.994,0,0,0,1.286-3.307c.535-2.436,2.94-14.532,2.94-18.373C9.777,151.089,9.226,151.089,9.226,151.641Z" fill="#043f6d"></path><path d="M120.57,35.887c.367.551.918.919,1.1,1.47a8.232,8.232,0,0,1,.735,3.675c0,1.277,1.437.1.919-2.2a6.807,6.807,0,0,0-1.1-2.572,4.408,4.408,0,0,0-1.47-1.1C120.57,35.336,120.386,35.7,120.57,35.887Z" fill="#043f6d"></path><path d="M72.431,140.249c-.368.184-.554-.372-.184-.551,2.739-1.324,36.931-13.78,37.3-13.964-1.469-3.859-12.494-32.521-12.861-33.991a.672.672,0,0,0-.919-.368c-4.042,2.756-28.479,11.392-29.03,11.576C60.672,96.52,42.3,95.6,34.581,99.092a.574.574,0,0,0,0,1.1c1.824.564,3.06,3.059,3.308,3.307-6.615,2.2-12.737,5.835-16.9,11.391-5.362,7.152-5.9,11.774-14.331,38.952a.678.678,0,0,0,.183.552c4.043.735,8.268.918,12.311,1.653-.32-8.945-.16-19.073,2.2-27.744a45.807,45.807,0,0,1,4.41-11.391c.184-.184.551,0,.368.183a29.865,29.865,0,0,0-2.389,6.8c-4.405,13.214-2.863,31.994-2.572,45.933.042,2.021.183,4.043.367,6.064a20.291,20.291,0,0,0,6.247.918c1.838,0,13.776-.786,18.006-1.1,8.812-.658,34.91-1.837,39.32-1.47a.59.59,0,0,0,.551-.551c.092-4.78,2.021-35.277,2.021-37.3A123.68,123.68,0,0,0,72.431,140.249ZM59.2,122.059A32.508,32.508,0,0,0,63.244,132.9a.538.538,0,0,1-.184.918c-.367,0-.735-.735-.918-.918-.735-1.1-1.47-2.389-2.205-3.675a31.491,31.491,0,0,1-2.2-8.268c-.676-5.391,1.2-10.748,3.307-13.229.168-.2,2.573-2.389,2.389-1.654-.184.551-.936,1.086-1.286,1.47a11.858,11.858,0,0,0-2.021,3.675A21.036,21.036,0,0,0,59.2,122.059Zm-5.7-19.292a4.989,4.989,0,0,1,3.124,1.47.352.352,0,0,1-.184.551c-2.791,0-2.485-1.47-14.148-1.47-.367,0-.183-.367,0-.367C44.854,102.754,50.872,102.328,53.506,102.767Z" fill="#407bff"></path><path d="M133.247,23.393c-4.091,0-26.553-.386-30.132,0-2.018.218-4.226.551-5.7,2.2a5.479,5.479,0,0,0-1.47,3.124,44.636,44.636,0,0,0,0,7.165c.17,2.023.16,4.066,1.837,5.7,3.263,3.17,8.817,1.562,12.862,1.654a.276.276,0,0,0,0-.552c-1.654,0-3.491-.183-5.145-.183-3.242,0-6.288-.083-7.717-2.94-.918-1.837-.735-4.226-.735-6.247,0-1.837-.183-4.41.735-6.063s2.944-2.35,4.778-2.573a62.527,62.527,0,0,1,7.533-.367c27.857,0,29.592-.081,30.316,0a7.067,7.067,0,0,1,4.593,2.94,8.96,8.96,0,0,1,1.1,6.063c-.045.272-.254,4.514-1.286,6.247-1.595,2.677-7.584,2.762-9,2.94h-3.308c-.183,0-.918,0-.735.367h.184a45.216,45.216,0,0,0,8.268,0c1.838-.184,3.675-.551,4.777-2.021,1.1-1.286,1.261-2.943,1.47-4.593a30.766,30.766,0,0,0,.368-3.859,22.113,22.113,0,0,0,0-3.491,7.326,7.326,0,0,0-3.675-4.777C142.287,23.687,139.38,23.393,133.247,23.393Z" fill="#043f6d"></path><path d="M164.482,81.454a76.382,76.382,0,0,0,12.127.183,13.15,13.15,0,0,0,4.41-.735,6.066,6.066,0,0,0,3.307-3.307,8.334,8.334,0,0,0,.367-2.94c0-2.211.052-2.6-.183-3.307,0-.184-.368-.184-.368,0a5.905,5.905,0,0,0-.184,2.572,12.677,12.677,0,0,1-.367,2.756,4.9,4.9,0,0,1-2.756,3.308,17.028,17.028,0,0,1-4.226.735c-1.47,0-3.124.183-4.593.183-2.389,0-4.961,0-7.35.184C164.3,81.27,164.3,81.454,164.482,81.454Z" fill="#043f6d"></path><path d="M121.672,120.038c6.836.149,26.057.614,30.316.184,2.02-.2,4.065-.334,5.7-1.47,2.051-1.428,2.389-3.675,2.389-5.88.445-7.127.533-12.174-6.615-12.677-3.67-.259-7.349,0-11.208,0-9.726,0-9.1.183-10.84.183a.276.276,0,0,0,0,.552c.735,0,2.021.168,2.94.183,5.514.092,11.023-.356,16.536,0,2.939.19,6.833.173,7.9,3.675.949,3.114.731,7.349.183,10.473-.74,4.225-7.166,4.008-10.473,4.042-9,.092-17.822-.184-26.825.184C121.488,119.671,121.488,120.034,121.672,120.038Z" fill="#043f6d"></path><path d="M188.735,105.155c-4.079-.407-26.5-.073-27.009.184-.367.184.184,11.024.552,11.024,4.6-.329,26.7-.518,28.479-.918,2.217-.5,3.49-2.94,3.49-5.145C194.431,107.36,191.492,105.523,188.735,105.155Z" fill="#407bff"></path><path d="M112.485,66.939a117.8,117.8,0,0,0-15.434-.552c-2.572,0-5.144,0-7.716.184a27.1,27.1,0,0,0-3.859.184,22.711,22.711,0,0,0-3.675.183,6.051,6.051,0,0,0-4.409,4.043c-.735,1.837.189,3.852,1.653,5.144a8.4,8.4,0,0,0,5.88,1.838c9.352,0,15.463.063,24.988-.552.367,0,.367-.735,0-.551a215.522,215.522,0,0,1-21.865.184c-2.021,0-4.4.156-6.43-.551-1.646-.574-3.491-2.2-3.491-4.226a4.515,4.515,0,0,1,1.1-2.572A4.169,4.169,0,0,1,81.8,67.857c2.236-.372,4.55.006,7.166-.367,4.525,0-3.412-.184,23.7-.184C112.669,67.206,112.669,67.122,112.485,66.939Z" fill="#043f6d"></path><path d="M192.043,28.722C190.215,27.6,188,27.8,185.8,27.8c-35.716,0-37.482.139-37.482.919a83.176,83.176,0,0,1-.552,9.554.4.4,0,0,0,.184.735c10.309.589,23.283.039,39.32-.184,1.653-.023,3.491,0,4.96-1.1C195.853,35.71,196.054,31.178,192.043,28.722Z" fill="#407bff"></path><path d="M193.145,68.592c-1.653-1.653-7.717-2.021-7.717-1.286,0,2.94,0,9.738.368,10.105a2.465,2.465,0,0,0,1.653.368,11.849,11.849,0,0,0,3.491-.368,5.521,5.521,0,0,0,3.859-3.858A6.108,6.108,0,0,0,193.145,68.592Z" fill="#407bff"></path><path d="M183.958,65.469c-3-4.5-9.238-3.491-13.412-3.491-2.389,0-4.961,0-7.35-.184-15.27,0-22.5-.786-25.539.735a5.1,5.1,0,0,0-2.94,2.572,5.523,5.523,0,0,0-.57,1.641c-2.516-.005-3.766-.061-4.023.2v.551a1.407,1.407,0,0,0,.919.367c1.794,0,2.559.054,2.958.06-.062.944-.019,1.886-.019,2.7a24.247,24.247,0,0,0,.528,6.8c-3.109,0-3.36-.054-3.835.184l.025.735c.1.1-.462,0,4.151,0a5.119,5.119,0,0,0,2.806,2.756c1.984.661,3.253.551,11.759.551,7.244,0,12-.2,13.045-.183a.276.276,0,1,0,0-.552c-1.1,0-2.388-.183-3.491-.183H147.579c-3.124,0-7.35.735-10.106-.735a5.081,5.081,0,0,1-2.388-4.594c-.184-2.756-.551-6.43.183-9.187a4.2,4.2,0,0,1,1.287-1.837c2.477-2.477,7.834-1.837,38.4-1.837,2.389,0,4.777,0,6.615,1.286a5.626,5.626,0,0,1,2.388,5.512c.184.184.184.184.368,0A4.1,4.1,0,0,0,183.958,65.469Z" fill="#043f6d"></path><path d="M144.272,68.225c-1.5,4.487.367,8.855.367,7.165C144.864,74.715,145.083,66.6,144.272,68.225Z" fill="#043f6d"></path><path d="M151.253,67.673c-.349,1.223-.183,2.032-.183,6.064,0,1.13.084,1.653.918,1.653.515-.343.368-.623.368-3.674C152.356,65.785,151.033,67.673,151.253,67.673Z" fill="#043f6d"></path><path d="M159.705,75.39c.324-.485-.085-10.118-1.286-7.717C158.519,67.673,158.1,77,159.705,75.39Z" fill="#043f6d"></path><path d="M165.585,67.857a43.573,43.573,0,0,0-.184,6.063c0,.552,0,1.47.368,1.838.183.184.5.176.551,0a6.883,6.883,0,0,0,.183-2.021,30.906,30.906,0,0,0-.367-6.064C166.136,67.49,165.585,67.49,165.585,67.857Z" fill="#043f6d"></path><path d="M173.485,68.041c0,.1-.583,6.6.552,7.533,1.336,1.095.689-4.974.567-5.725C174.083,66.637,173.5,67.641,173.485,68.041Z" fill="#043f6d"></path><path d="M105.687,29.824c-.673,2.02-.128,1.983-.551,3.675,0,1.1-.184,2.572.367,3.491.184.367.552.183.552,0,.231-.694.183-1,.183-5.329,0-.551-.183-1.1-.183-1.837C106.238,29.64,105.871,29.456,105.687,29.824Z" fill="#043f6d"></path><path d="M112.669,29.273a23.68,23.68,0,0,0-.367,6.063c0,.551,0,1.47.551,1.654h.367c.551-.368.368-1.1.368-1.654a23.986,23.986,0,0,0-.368-6.063C113.036,29.089,112.669,28.905,112.669,29.273Z" fill="#043f6d"></path><path d="M127,29.456a43.635,43.635,0,0,0-.183,6.064c0,.551,0,1.47.367,1.837.184.184.538.2.592.021a7.064,7.064,0,0,0,.143-2.042,30.892,30.892,0,0,0-.367-6.063C127.552,29.089,127,29.089,127,29.456Z" fill="#043f6d"></path><path d="M134.9,29.64c0,.1-.642,9.278,1.1,7.533.616-.922-.234-6.491-.551-7.717C135.365,29.12,134.9,29.273,134.9,29.64Z" fill="#043f6d"></path><path d="M135.82,106.442c-.144,1.008-.061,7.186.735,7.717a.345.345,0,0,0,.551,0c.583-.875-.372-7.089-.551-7.717C136.555,106.074,136,106.074,135.82,106.442Z" fill="#043f6d"></path><path d="M142.985,106.809a43.626,43.626,0,0,0-.183,6.063c0,.552,0,1.47.367,1.838.184.183.551.183.551,0,.368-.551.184-1.286.184-2.021a30.906,30.906,0,0,0-.367-6.064C143.537,106.258,142.985,106.442,142.985,106.809Z" fill="#043f6d"></path><path d="M152.172,112.321a28.623,28.623,0,0,0-.735-5.7c-.116-.376-.457-.216-.551.184a8.1,8.1,0,0,0-.184,2.021c0,1.955-.124,3.065,0,3.8a2.434,2.434,0,0,0,.74,1.71.344.344,0,0,0,.551,0C152.356,113.791,152.172,113.056,152.172,112.321Z" fill="#043f6d"></path><path d="M129.205,109.014c0,.919-.184,1.837-.184,2.756v2.021c0,.368.368.551.735.551,1.319,0,.306-3.261,0-5.144C129.663,108.624,129.205,108.83,129.205,109.014Z" fill="#043f6d"></path><path d="M95.4,28.354a8.735,8.735,0,0,0-2.389-.184c-3.861.092-7.9-.367-11.759.184a5.972,5.972,0,0,0-3.307,1.837,5.559,5.559,0,0,0,0,6.8c2.272,2.933,7.25,1.837,12.494,1.837a35.267,35.267,0,0,1,4.41,0,.462.462,0,0,0,0-.919,21.363,21.363,0,0,0-3.308,0c-1.284.2-2.756.184-4.042.368-3.879,0-5.908.195-7.533-.735a4.5,4.5,0,0,1-1.47-6.063c1.1-1.838,3.307-2.205,5.329-2.205,3.123-.184,6.247.183,9.37,0a10.466,10.466,0,0,0,2.389-.184C95.582,28.722,95.582,28.538,95.4,28.354Z" fill="#043f6d"></path><path d="M120.281,29.412a6.385,6.385,0,0,0-.079.779c0,1.684-.058,1.963.184,2.205.338.338.735-.5.735-.735a7.985,7.985,0,0,0-.12-2.232C120.935,29.208,120.33,29.138,120.281,29.412Z" fill="#043f6d"></path><path d="M57.365,82.189a2.11,2.11,0,0,0,1.653.918c.919,0,1.1.551.551.919a1.806,1.806,0,0,1-2.388-.735C56.547,82.3,56.63,81.454,57.365,82.189Z" fill="#043f6d"></path><path d="M55.16,70.8a1.467,1.467,0,0,0-1.47.735c-.551.735-1.011.568-.919-.184a1.753,1.753,0,0,1,1.838-1.653C55.9,69.695,56.078,70.613,55.16,70.8Z" fill="#043f6d"></path><path d="M54.425 73.553 A1.47 0.919 0 1 0 57.365 73.553 A1.47 0.919 0 1 0 54.425 73.553 Z" fill="#043f6d"></path></g></g></svg>