<?xml version='1.0' encoding='utf-8'?>
<svg xmlns="http://www.w3.org/2000/svg" version="1.1" width="1919px" height="1441px" viewBox="-431 355 1919 1441"> <g id="layer1"> <g style="fill:rgb(0,174,199); fill-opacity:1.0; stroke-linejoin: miter"> <path d="M-467.35632,305.2688C-467.6243,305.2688,-467.88132,305.37524,-468.07086,305.5647C-468.26038,305.7542,-468.36682,306.0113,-468.36682,306.27924L-468.36578,1801.1404C-468.36578,1801.6985,-467.91333,1802.1509,-467.3553,1802.1509L1523.3722,1802.1521C1523.6401,1802.1521,1523.8972,1802.0457,1524.0867,1801.8562C1524.276,1801.6665,1524.3827,1801.4094,1524.3827,1801.1416L1524.3816,306.2802C1524.3816,305.72217,1523.9291,305.26978,1523.3711,305.26978L-467.35632,305.2688 Z"/> </g> <g style="fill:rgb(62,156,223); fill-opacity:1.0; stroke-linejoin: miter"> <path d="M414.4179,1043.1542L444.29504,1043.1547L474.17188,1043.1556Q474.17175,1164.6715,474.17206,1286.188Q444.29504,1286.1882,414.41803,1286.1891Q414.41803,1164.6714,414.4179,1043.1542"/> </g> <g style="fill:rgb(255,255,255); fill-opacity:1.0; stroke-linejoin: miter"> <path d="M359.06253,855.29724L357.8726,855.30054Q308.36774,855.46423,264.22098,871.2024L336.90506,1037.2891Q396.75635,986.61255,465.27502,1000.9109Q479.1198,1003.6754,491.69,1008.7981Q522.00037,1023.6682,526.5325,1029.4719Q559.42487,1058.5192,570.8837,1091.4668Q583.71686,1123.2697,578.52795,1161.3904Q570.5887,1214.2339,532.79987,1248.3673L532.81464,1302.6154Q589.09076,1246.1776,606.1252,1178.4279Q611.80273,1155.8446,613.121,1132.0045L613.34906,1107.8503Q610.2201,1058.6198,594.0167,1017.39465Q592.0087,1005.83765,562.3565,960.0603Q535.6084,924.09937,498.7384,899.1045Q433.92468,856.92053,359.06253,855.29724 Z"/> </g> <g style="fill:rgb(17,4,64); fill-opacity:1.0; stroke-linejoin: miter"> <path d="M260.64377,872.53125L247.92563,877.7809Q192.59293,905.63196,167.759,934.25916Q142.24747,959.2904,119.39102,1003.6282Q79.80571,1086.4922,103.22737,1179.1058Q114.8949,1223.1133,134.07706,1252.6907Q157.0427,1291.7584,200.96567,1324.7655Q231.67068,1348.6866,291.0081,1367.2592Q318.9938,1375.328,379.85486,1372.9856L379.86804,1273.8383Q370.4001,1272.0201,339.16034,1247.8738Q327.6042,1237.3369,318.73105,1224.2899Q300.9852,1198.1964,293.97366,1162.064Q292.22687,1123.3998,294.95123,1117.0553Q297.19846,1102.9211,302.0067,1089.9436Q310.3727,1065.256,333.98935,1040.1313L260.64377,872.53125 Z"/> </g> <g style="fill:rgb(17,4,64); fill-opacity:1.0; stroke-linejoin: miter"> <path d="M359.5703,1295.1144L366.73352,1340.0092Q343.89767,1387.4807,310.45267,1412.5817Q280.93835,1437.4392,177.85461,1489.8843Q148.72183,1470.2701,140.45517,1450.3911Q134.55157,1433.7653,137.25299,1405.0392Q121.45358,1389.854,119.527954,1384.7705Q117.733185,1381.2296,118.26517,1378.379Q123.53119,1366.6292,121.699615,1365.0848L119.05887,1360.4458Q109.51123,1349.0831,109.20874,1347.7202L106.93962,1341.669Q105.786804,1332.3695,114.95889,1317.9435Q88.03099,1311.5704,77.3578,1305.8433Q63.75911,1299.3733,61.39044,1287.1791Q58.86583,1277.1036,69.636795,1252.4568L77.61885,1236.1993L109.90289,1175.0867L359.5703,1295.1144"/> </g> <g style="fill:rgb(17,4,64); fill-opacity:1.0; stroke-linejoin: miter"> <path d="M568.236,1140.9929L567.0455,1158.6929Q558.5797,1212.1829,517.50415,1244.2533Q476.1446,1276.2977,420.09674,1270.241Q366.60635,1261.7753,334.53586,1220.7003Q324.2601,1207.4229,317.6077,1191.7659L312.0166,1175.6687Q307.40894,1159.0547,307.35715,1140.9929Q308.7557,1085.5647,345.56195,1048.7588Q382.36804,1011.95276,437.79675,1010.55383Q493.22504,1011.9529,530.03107,1048.7585Q566.83734,1085.5648,568.236,1140.9929"/> </g> <g style="fill:rgb(149,253,69); fill-opacity:1.0; stroke-linejoin: miter"> <path d="M46.124313,1095.614L120.82855,1127.3535L195.53284,1159.0929L46.124313,1095.614"/> </g> <g style="fill:rgb(255,255,255); fill-opacity:1.0; stroke-linejoin: miter"> <path d="M87.058304,1084.0104L117.41751,1084.0109L147.77676,1084.011Q147.7767,1147.1484,147.7767,1210.2858Q117.41748,1210.2861,87.05826,1210.2866Q87.05826,1147.1484,87.058304,1084.0104"/> </g> <g style="fill:rgb(255,255,255); fill-opacity:1.0; stroke-linejoin: miter"> <path d="M130.03857,1125.2745L240.18552,1125.2751L350.33234,1125.2755Q350.3323,1147.7319,350.3323,1170.1888Q240.18549,1170.189,130.03851,1170.1893Q130.03851,1147.7318,130.03857,1125.2745"/> </g> <g style="fill:rgb(255,255,255); fill-opacity:1.0; stroke-linejoin: miter"> <path d="M552.85675,1141.6343L551.7222,1157.2362Q550.00604,1167.7089,546.87555,1177.2411Q546.19464,1182.5951,534.29974,1203.7218Q523.7932,1219.9647,507.62756,1232.4459Q499.4886,1238.6812,490.71954,1243.254Q468.24457,1253.2305,462.99274,1253.231Q443.56226,1257.3884,421.60938,1254.8953Q415.78528,1254.9219,392.3073,1246.5647Q383.24542,1242.7264,375.12372,1237.4734Q358.88052,1226.9669,346.39932,1210.8011Q318.5491,1171.7036,323.53217,1129.7303Q325.7357,1108.8293,334.08902,1091.2062Q338.26553,1082.3944,343.97943,1074.4016Q345.9676,1069.8025,364.3972,1052.4496Q395.00818,1026.8495,438.46045,1025.9891Q460.18,1026.6553,478.62305,1033.471Q500.9594,1043.3363,504.44385,1047.1539Q512.43616,1052.868,519.60944,1060.1195Q536.1895,1078.9504,537.65,1083.6797Q542.5037,1092.135,545.8114,1101.3927Q552.4267,1119.9086,552.85675,1141.6343"/> </g> <g style="fill:rgb(17,4,64); fill-opacity:1.0; stroke-linejoin: miter"> <path d="M67.624954,1106.5425L90.95021,1106.5426L114.27548,1106.5427Q114.27545,1151.3824,114.27545,1196.2225Q90.950195,1196.2227,67.62491,1196.2227Q67.62491,1151.3824,67.624954,1106.5425"/> </g> <g style="fill:rgb(17,4,64); fill-opacity:1.0; stroke-linejoin: miter"> <path d="M414.50397,1265.228L414.50397,1422.0408L474.1029,1422.0419L474.1029,1265.2288L414.50397,1265.228 Z"/> </g> <g style="fill:rgb(255,255,255); fill-opacity:1.0; stroke-linejoin: miter"> <path d="M437.35028,1225.9725L437.35028,1422.0408L454.73334,1422.0422L454.73334,1225.9733L437.35028,1225.9725 Z"/> </g> <g style="fill:rgb(255,255,255); fill-opacity:1.0; stroke-linejoin: miter"> <path d="M820.72815,1543.769L820.7282,1543.7701L820.72833,1543.771L820.72815,1543.769"/> </g> <g style="fill:rgb(17,4,64); fill-opacity:1.0; stroke-linejoin: miter"> <path d="M1299.7505,757.3379C1282.1884,757.3379,1264.2319,759.6714,1245.8208,764.75525C1184.6226,781.65393,1118.4208,829.04456,1060.5359,870.4094C1006.32764,909.147,960.5714,941.58044,931.01965,943.423C930.14197,943.4779,929.2875,943.5045,928.4447,943.5045C924.2693,943.5045,920.4691,942.8447,916.97595,941.6417C896.36536,934.5442,884.2755,908.1113,870.1527,876.13684C854.91754,841.64355,837.56573,801.54724,801.2867,789.0537C792.6059,786.0641,783.0146,784.7084,772.70306,784.7084C695.04236,784.7084,566.7343,862.58435,440.82025,938.7737C439.34222,939.6693,438.35846,941.28906,438.35846,943.1387C438.35846,944.9828,439.35126,946.6821,440.95605,947.5868C441.73474,948.02576,442.59888,948.2446,443.46234,948.2446C444.3783,948.2446,445.29346,947.9983,446.10486,947.5073C573.5912,870.36694,698.6839,794.9165,772.70306,794.9165C782.1369,794.9165,790.5703,796.1598,797.96277,798.70544C829.1838,809.4573,844.974,844.396,860.8149,880.26074C874.121,910.3865,887.849,942.40796,913.652,951.29346C918.24243,952.8745,923.1675,953.7124,928.4447,953.7124C929.511,953.7124,930.55896,953.6798,931.65173,953.6116C964.9364,951.5364,1013.7854,916.3644,1066.471,878.7151C1124.8557,836.9928,1189.4581,790.90906,1248.5377,774.59546C1266.0663,769.75525,1283.1069,767.546,1299.7505,767.546C1380.2778,767.546,1452.1277,819.16797,1524.3821,877.845L1524.3821,864.7103L1524.3987,864.71155L1524.3821,864.7091L1524.3971,864.7103C1454.2568,808.1283,1381.604,757.3379,1299.7505,757.3379 Z"/> </g> <g style="fill:rgb(17,4,64); fill-opacity:1.0; stroke-linejoin: miter"> <path d="M1131.0076,988.1008C1125.6348,988.1008,1120.3076,988.57104,1115.0059,989.4391C1087.032,994.01843,1059.3232,1009.8179,1029.944,1026.4912C993.4868,1047.1813,953.69385,1069.7145,904.86536,1077.7076C890.4042,1080.075,875.08234,1081.1746,859.01685,1081.1746C764.53235,1081.1746,645.945,1043.2654,526.1943,1004.9098C525.63654,1004.7062,525.04083,1004.595,524.419,1004.595C521.6001,1004.595,519.315,1006.8801,519.315,1009.69885C519.315,1011.9198,520.74884,1013.88464,522.8943,1014.5718L522.9341,1014.5841C642.1661,1052.7734,762.5396,1091.3826,859.01685,1091.3826C875.54156,1091.3826,891.42163,1090.2524,906.5144,1087.7819C957.3916,1079.4532,998.6727,1055.9753,1034.9824,1035.3688C1064.8341,1018.4275,1090.8511,1003.7372,1116.655,999.5133C1121.457,998.7268,1126.2358,998.3087,1131.0076,998.3087C1133.0978,998.3087,1135.2017,998.3898,1137.2959,998.5552C1175.1185,1001.5386,1215.1163,1031.9968,1258.5397,1065.3214C1288.7955,1088.5405,1320.4178,1112.8379,1352.952,1127.9546C1387.0292,1143.7883,1421.8857,1149.4844,1457.016,1149.4844C1479.3457,1149.4844,1501.8477,1147.1782,1524.3656,1143.6995L1524.3822,1143.7007L1524.3822,1133.3688L1524.3656,1133.37C1501.7135,1136.9252,1479.2515,1139.2764,1457.016,1139.2764C1423.0204,1139.2764,1389.696,1133.7712,1357.2535,1118.6969C1325.9342,1104.1445,1295.2313,1080.612,1264.7545,1057.223C1222.3137,1024.6527,1179.6245,991.6542,1138.0988,988.37866C1135.7314,988.1918,1133.3602,988.1008,1131.0076,988.1008 Z"/> </g> <g style="fill:rgb(17,4,64); fill-opacity:1.0; stroke-linejoin: miter"> <path d="M1524.3651,525.47266C1470.3768,549.1705,1413.8702,573.71045,1330.483,607.27057C1258.4269,636.2708,1167.3868,671.51385,1079.0905,671.51385C1054.295,671.51385,1029.7755,668.7306,1005.99646,662.26996C964.09656,650.8859,924.18335,628.0304,884.57556,605.31586C832.96606,575.7183,781.4744,546.03204,728.70746,546.03204C717.57697,546.03204,706.3858,547.3476,695.1229,550.2497C591.02625,577.0733,482.4297,740.17773,375.77942,899.73047C375.23492,900.542,374.91876,901.5166,374.91876,902.56506C374.91876,904.81506,376.3896,906.7981,378.5407,907.45105C379.03058,907.59973,379.52942,907.6714,380.02246,907.6714C381.69495,907.6714,383.30133,906.8469,384.2661,905.40344C492.29865,743.7831,598.3832,585.71906,697.6701,560.1349C708.06024,557.45776,718.3922,556.24023,728.7072,556.24023C778.2105,556.24023,827.18176,584.1686,879.4973,614.171C918.8666,636.7487,959.9302,660.3323,1003.31995,672.12115C1028.1,678.8538,1053.534,681.7217,1079.0905,681.7217C1169.6595,681.7217,1262.4767,645.64465,1334.2946,616.74066C1415.7089,583.97437,1471.5615,559.7836,1524.3651,536.62036L1524.3817,536.6216L1524.3817,525.47266 Z"/> </g> <g style="fill:rgb(17,4,64); fill-opacity:1.0; stroke-linejoin: miter"> <path d="M1524.3818,637.9895L1411.3918,667.8114L1411.3763,667.8126C1275.8221,691.5407,1138.5907,715.4932,1068.4387,757.1293C1042.3197,772.6311,1025.5123,790.53784,1011.82947,805.0946C994.9686,823.0321,983.97534,834.3059,966.93835,834.3059C959.53503,834.3059,950.59424,832.1598,939.15063,826.7804C920.9292,818.21497,897.2688,801.9252,869.8535,783.02686C808.6355,740.8274,729.0936,685.75336,658.1287,685.75336C655.3278,685.75336,652.5343,685.8387,649.7556,686.0141C545.32654,692.6052,464.7757,826.08154,386.49365,954.7649C386.02094,955.5381,385.75012,956.4453,385.75012,957.41565C385.75012,959.70593,387.27332,961.7146,389.47675,962.3323C389.93365,962.4603,390.3966,962.522,390.85406,962.522C392.60303,962.522,394.27203,961.61975,395.21478,960.0702C475.05743,828.8213,552.63,702.37006,650.3985,696.20197C652.9433,696.04095,655.54785,695.96124,658.1287,695.96124C725.20935,695.96124,801.826,748.53174,864.0598,791.4315C891.1681,810.11804,915.64124,827.0089,934.80786,836.0188C947.0929,841.79395,957.552,844.5138,966.93835,844.5138C989.182,844.5138,1003.2175,829.16113,1019.2676,812.0862C1032.9192,797.5626,1048.8776,780.61,1073.6489,765.9076C1141.8138,725.45105,1276.7384,701.74347,1413.3948,677.8214C1413.537,677.79645,1413.6777,677.76587,1413.8171,677.7288L1524.3818,648.547L1524.3818,637.9895 Z"/> </g> <g style="fill:rgb(17,4,64); fill-opacity:1.0; stroke-linejoin: miter"> <path d="M742.23816,883.3478C693.8758,883.3478,604.1948,925.224,516.57495,965.99817C514.80304,966.8013,513.57556,968.58044,513.57556,970.6465C513.57556,972.3917,514.46564,974.01465,515.9356,974.952C516.76843,975.48303,517.72205,975.7523,518.6798,975.7523C519.41266,975.7523,520.1479,975.5947,520.8331,975.27563C609.8332,933.85913,696.7674,893.5558,742.23816,893.5558C751.2255,893.5558,757.92035,895.16614,762.5334,898.13367C772.7334,904.6953,775.528,919.44226,778.80334,939.39197C782.3912,961.24475,786.52435,988.1963,809.1368,1002.74255C819.51666,1009.42004,833.3354,1013.2053,851.7921,1013.2053C852.4657,1013.2053,852.9596,1013.202,853.64594,1013.193C901.5851,1012.54944,983.4491,986.74207,1068.8873,959.8716C1150.8892,934.08203,1236.693,907.11523,1301.7952,898.787C1317.217,896.8142,1331.4448,895.8933,1344.6212,895.8933C1441.9126,895.8933,1483.1927,946.03235,1524.3821,998.95667L1524.3821,982.4242L1524.3987,982.4254L1524.3821,982.423L1524.3977,982.4242C1485.0835,932.71936,1440.432,885.6852,1344.6212,885.6852C1330.971,885.6852,1316.3068,886.63904,1300.4999,888.66113C1234.2941,897.13074,1147.4929,924.4491,1065.8248,950.13354C979.54614,977.26807,899.5448,1002.36755,853.5088,1002.9857C852.9139,1002.9939,852.3778,1002.99744,851.7921,1002.99744C834.70996,1002.99744,822.9617,999.49805,814.65955,994.15735C796.51434,982.4846,792.64453,960.6886,788.87646,937.73816C785.8981,919.5968,782.9067,899.1017,768.05615,889.54846C761.1484,885.10474,752.2382,883.3478,742.23816,883.3478 Z"/> </g> <g style="fill:rgb(17,4,64); fill-opacity:1.0; stroke-linejoin: miter"> <path d="M1524.365,442.79376C1416.1879,470.27185,1308.4232,497.4757,1209.1483,517.6516C1138.0093,532.10944,1071.5314,542.89246,1005.292,542.89246C975.7837,542.89246,946.3323,540.752,916.5497,535.8412C885.31287,530.6906,853.6398,522.48254,821.55426,514.1637C768.21826,500.33514,713.67865,486.16455,659.6507,486.16455C645.7354,486.16455,631.82983,487.10278,617.9622,489.23053C518.0285,504.5639,421.84674,581.3654,372.12244,661.9843C322.19574,742.9313,318.994,827.8728,315.7582,911.33435C315.75555,911.39966,315.75433,911.46533,315.75433,911.5311C315.75433,914.3125,317.97968,916.5813,320.75946,916.63513C320.79318,916.63574,320.82675,916.6361,320.86032,916.6361C323.595,916.6361,325.8522,914.47437,325.9586,911.72986C329.2061,827.96765,332.4873,745.69055,380.8108,667.343C429.33612,588.6681,523.17114,514.1023,619.51025,499.32056C632.8116,497.27972,646.1933,496.37274,659.6507,496.37274C712.14594,496.37274,765.39746,510.1493,818.9924,524.0451C850.9921,532.34174,883.11755,540.67444,914.8889,545.91327C945.27356,550.92334,975.28564,553.1007,1005.292,553.1007C1072.5835,553.1007,1139.8749,542.1471,1211.1814,527.6553C1309.9598,507.58008,1417.0653,480.57843,1524.3651,453.32593L1524.3817,453.3272L1524.3817,442.79376 Z"/> </g> <g style="fill:rgb(17,4,64); fill-opacity:1.0; stroke-linejoin: miter"> <path d="M588.77496,1081.8301C586.605,1081.8301,584.5925,1083.2247,583.9073,1085.4045C583.5041,1086.6871,583.6228,1088.0758,584.23755,1089.271L584.36847,1089.5258C624.36725,1167.2928,665.41046,1247.4707,736.02893,1279.7993C739.0004,1281.1594,742.0241,1282.4354,745.0886,1283.6248C767.29736,1292.243,791.90894,1296.4308,817.104,1296.4308C871.21497,1296.4308,928.0177,1277.1146,969.4877,1240.8877C992.8103,1220.5133,1011.18555,1194.8525,1027.6058,1171.9562C1041.5682,1152.4872,1053.945,1135.2793,1066.9329,1123.9332C1076.7344,1115.3707,1086.4758,1110.4849,1097.2286,1110.4849C1101.0911,1110.4849,1105.0841,1111.1154,1109.2572,1112.4323C1110.31,1112.7645,1111.3729,1113.1392,1112.4661,1113.5631C1138.4193,1123.635,1171.2214,1157.4147,1207.798,1195.2803C1245.4277,1234.2361,1286.5729,1276.922,1325.999,1296.9707C1330.399,1299.2085,1334.7852,1301.1687,1339.1525,1302.8635C1354.6359,1308.8723,1369.8054,1311.516,1384.6974,1311.516C1433.8383,1311.516,1479.9572,1282.7299,1524.3656,1251.0846L1524.3822,1251.0858L1524.3822,1238.5139L1524.3656,1238.5151C1477.703,1272.0265,1432.3071,1301.3125,1384.7546,1301.3125C1370.9933,1301.3125,1357.0513,1298.8597,1342.8456,1293.3472C1338.8069,1291.7795,1334.7285,1289.9579,1330.6261,1287.8718C1293.0719,1268.7754,1253.2205,1227.6102,1215.14,1188.188C1179.4236,1151.213,1144.7533,1115.1433,1116.1589,1104.0465C1114.8693,1103.5461,1113.6095,1103.1013,1112.3292,1102.697C1107.0659,1101.0361,1102.0366,1100.2671,1097.2126,1100.2671C1083.4264,1100.2671,1071.3174,1106.5483,1060.2169,1116.2454C1046.146,1128.5376,1033.0414,1146.8608,1019.31055,1166.0072C1002.7743,1189.0653,985.05725,1213.7316,962.7717,1233.1993C923.1289,1267.8306,868.71246,1286.2213,817.10376,1286.2213C793.1376,1286.2213,769.7768,1282.2554,748.7821,1274.1079C745.899,1272.9888,743.0648,1271.7931,740.2781,1270.5175C673.5303,1239.9608,633.9796,1163.664,593.446,1084.8564L593.3148,1084.6012C592.71356,1083.4308,591.662,1082.4922,590.30725,1082.0663C589.7978,1081.9061,589.2821,1081.8301,588.77496,1081.8301 Z"/> </g> <g style="fill:rgb(0,0,0); fill-opacity:1.0; stroke-linejoin: miter"> <path d="M596.671,1087.3435L596.59955,1088.407Q596.0909,1091.6208,593.6229,1093.5476Q591.138,1095.4729,587.7705,1095.109Q584.5566,1094.6003,582.6298,1092.1326Q580.70447,1089.6476,581.0684,1086.2799Q581.577,1083.066,584.0449,1081.1393Q586.5299,1079.214,589.89734,1079.5779Q593.11127,1080.0864,595.038,1082.5543Q595.6554,1083.352,596.05524,1084.2928L596.3912,1085.26Q596.6679,1086.2583,596.671,1087.3435"/> </g> <g style="fill:rgb(0,0,0); fill-opacity:1.0; stroke-linejoin: miter"> <path d="M533.6722,1010.7755L533.60065,1011.839Q533.3746,1013.26746,532.76154,1014.44165L532.4308,1015.0127Q532.0759,1015.5679,531.6242,1016.0598Q531.17255,1016.5515,530.6241,1016.9796Q530.0719,1017.4075,529.47614,1017.7224Q527.9485,1018.4104,527.59064,1018.41235Q526.26825,1018.70264,524.77155,1018.541Q523.3432,1018.31494,522.16907,1017.7019Q521.582,1017.3954,521.0585,1016.9922Q519.8052,1015.8993,519.6308,1015.5646Q517.91956,1013.3557,518.01685,1010.4496Q518.09186,1008.94653,518.62634,1007.7124Q518.8845,1007.0935,519.2394,1006.5383Q519.3564,1006.22095,520.52185,1005.0154Q520.7342,1004.7206,522.1941,1003.8285Q522.78986,1003.5137,523.4292,1003.312Q524.70795,1002.90845,526.16113,1002.9573Q527.664,1003.0322,528.89813,1003.56665Q529.51697,1003.8247,530.07227,1004.1797Q531.40485,1005.1516,531.5951,1005.46204Q532.52747,1006.47485,533.05634,1007.725Q533.63934,1009.0299,533.6722,1010.7755"/> </g> <g style="fill:rgb(0,0,0); fill-opacity:1.0; stroke-linejoin: miter"> <path d="M527.94446,971.3279L527.87305,972.39136Q527.5512,974.1073,527.0339,974.9939Q526.2198,976.51794,524.89636,977.532Q523.93286,978.33997,522.23145,978.8872Q521.121,979.2107,519.3743,979.1238Q516.126,978.73474,514.1393,976.4243Q513.0245,974.98157,512.73926,974.01575Q512.5826,973.75745,512.3352,972.25916Q512.2676,971.6478,512.2892,971.00195Q512.34326,969.3993,513.0814,967.85925Q513.39655,966.9275,514.9501,965.4072Q517.4282,963.3628,520.43335,963.5099Q523.5343,963.67834,525.72644,965.8439Q526.96875,967.21765,527.4514,968.57275Q527.91534,969.77625,527.94446,971.3279"/> </g> <g style="fill:rgb(0,0,0); fill-opacity:1.0; stroke-linejoin: miter"> <path d="M453.03076,942.6023L452.95935,943.66565Q452.39496,946.9652,449.98267,948.8064Q449.31073,949.46204,447.3177,950.1614Q446.5208,950.4562,444.46057,950.39795Q443.7387,950.3115,443.07916,950.13025Q442.71045,950.09875,441.24066,949.3727Q440.10852,948.72534,439.22552,947.6985Q437.99738,946.0791,437.7514,945.1139Q437.26935,943.54944,437.39587,941.9208Q437.46887,940.6096,438.253,938.9192Q438.6554,938.03284,440.03638,936.6814Q441.13776,935.7728,442.34326,935.297Q442.94598,935.0592,443.57477,934.92957Q443.87292,934.797,445.51965,934.78406Q445.8922,934.7411,447.48596,935.1184Q448.1078,935.3037,448.6847,935.58777Q449.83844,936.15576,450.81274,937.11816Q451.91705,938.3395,452.42102,939.5458Q453.00244,940.8972,453.03076,942.6023"/> </g> <g style="fill:rgb(0,0,0); fill-opacity:1.0; stroke-linejoin: miter"> <path d="M398.8462,958.15027L398.77472,959.21387Q398.64935,959.947,398.43268,960.6083Q397.81116,962.19824,397.57733,962.42993Q396.953,963.463,395.63245,964.50073Q395.00104,965.0574,392.9405,965.77075Q392.10736,965.9979,390.276,965.9463Q389.51013,965.8535,388.67633,965.6301Q387.961,965.38,387.05615,964.9208Q386.1494,964.4573,385.04102,963.2468Q383.94922,961.8074,383.6336,960.88477Q383.0946,959.3407,383.21136,957.4691Q383.3332,955.92334,384.16998,954.2648Q384.62427,953.4309,385.8518,952.22974Q388.21338,950.21094,391.43298,950.32776Q394.4524,950.532,396.62817,952.66626Q397.55005,953.6177,398.23645,955.0939Q398.8822,956.78723,398.8462,958.15027"/> </g> <g style="fill:rgb(0,0,0); fill-opacity:1.0; stroke-linejoin: miter"> <path d="M389.1104,902.3729L389.03894,903.4364Q388.89203,904.70215,387.9646,906.4823Q387.01428,907.938,385.7387,908.8489Q385.03632,909.35925,383.2047,909.9933Q382.6615,910.19934,380.54022,910.1688Q378.95087,910.0493,377.32037,909.14343Q376.6363,908.8612,375.30524,907.46924Q374.1178,905.9442,373.7862,904.76013Q373.3719,903.3552,373.4756,901.69165Q373.70837,899.7892,374.4342,898.4873Q374.70642,897.87744,376.11603,896.4523Q377.1657,895.55505,378.3847,895.0797Q378.9942,894.84204,379.64618,894.70984Q379.94562,894.57776,381.6972,894.5504Q383.03918,894.6411,384.21448,895.11316Q384.53436,895.17163,385.88373,896.03564Q386.40894,896.41455,386.89246,896.8889Q387.6341,897.5737,388.50067,899.3165Q389.07446,900.6681,389.1104,902.3729"/> </g> <g style="fill:rgb(0,0,0); fill-opacity:1.0; stroke-linejoin: miter"> <path d="M328.39072,911.74744L328.31924,912.81116Q328.28683,913.7416,327.24487,915.85706Q326.40015,917.1509,325.2984,918.0144Q324.52158,918.6907,322.34476,919.41077Q321.2129,919.6161,319.46683,919.5072Q318.12997,919.3616,316.44067,918.44165Q315.7687,918.0812,314.58554,916.844Q313.52997,915.4883,313.1507,914.4022Q312.64774,912.93567,312.75586,911.0663Q312.9628,909.3751,313.55927,908.1587Q313.88443,907.3248,315.39633,905.8269Q317.6891,903.8319,320.9775,903.92505Q323.9865,904.05566,326.33908,906.42883Q328.43875,908.90356,328.39072,911.74744"/> </g> <g style="fill:rgb(255,255,255); fill-opacity:1.0; stroke-linejoin: miter"> <path d="M486.87573,1324.8878L489.8747,1408.4299L358.33862,1411.9355Q196.0427,1549.839,158.97528,1631.5239Q119.1445,1706.0681,110.29985,1802.1514L711.12714,1802.1516Q679.9897,1655.9028,653.8196,1588.8457Q608.60315,1453.0283,486.88208,1324.8878 Z"/> </g> <g style="fill:rgb(17,4,64); fill-opacity:1.0; stroke-linejoin: miter"> <path d="M436.5016,1529.8231Q347.58398,1534.8685,288.54028,1667.6334Q261.7124,1727.9581,246.61111,1802.1514L626.39197,1802.1516Q611.2907,1727.9584,584.4628,1667.6334Q525.4191,1534.8685,436.5016,1529.8231 Z"/> </g> <g style="fill:rgb(17,4,64); fill-opacity:1.0; stroke-linejoin: miter"> <path d="M486.87573,1324.8878L489.8747,1408.4299L483.35645,1408.6036L493.80585,1418.7122Q570.23474,1487.4054,609.0676,1578.5328Q637.0004,1639.7896,669.79193,1802.1516L711.12714,1802.1528Q679.9897,1655.9028,653.8196,1588.8457Q608.60315,1453.0283,486.88208,1324.8878 Z"/> </g> </g> </svg>