<svg xmlns="http://www.w3.org/2000/svg" viewBox="0 0 999 999"><g transform="matrix(2.4975,0,0,2.4975,0,0)"><g transform="matrix(2,0,0,2,0,0)"><defs><style>.a{fill:#0400BF;}.b{fill:#FFC077;}.c{fill:#69D6F9;}.d{fill:none;stroke:#0400BF;stroke-linecap:round;stroke-linejoin:round;stroke-width:0.772px;}</style></defs><rect class="a" x="28.983" y="131.098" width="18.431" height="8.323"></rect><rect class="a" x="28.983" y="143.112" width="18.431" height="8.323"></rect><rect class="a" x="28.983" y="155.126" width="18.431" height="22.99"></rect><path class="a" d="M162.954,39.219a5.378,5.378,0,1,1-5.378,5.378A5.38,5.38,0,0,1,162.954,39.219Z"></path><path class="a" d="M162.954,64.448a5.38,5.38,0,1,1-5.378,5.382A5.381,5.381,0,0,1,162.954,64.448Z"></path><circle class="a" cx="22.779" cy="50.647" r="10.227"></circle><circle class="a" cx="116.731" cy="29.548" r="1.842"></circle><circle class="a" cx="46.07" cy="39.219" r="1.842"></circle><path class="b" d="M31.8,109.976a3.651,3.651,0,1,1-3.652,3.649A3.648,3.648,0,0,1,31.8,109.976Z"></path><circle class="b" cx="155.951" cy="21.511" r="3.652"></circle><path class="b" d="M86.263,5.844A3.652,3.652,0,1,1,82.614,9.5,3.649,3.649,0,0,1,86.263,5.844Z"></path><circle class="b" cx="15.776" cy="21.511" r="3.652"></circle><path class="c" d="M145.017,117.736l-4.528.672a3.968,3.968,0,0,1-3.961-3.641c0-.015,0-.034,0-.046a4.075,4.075,0,0,1,2.745-4.582l4.5-.668c-.274.085-2.706.9-2.119,4.8A3.813,3.813,0,0,0,145.017,117.736Z"></path><path class="c" d="M176.416,35.316v55.2a1.284,1.284,0,0,1-1.282,1.282H150.777a1.283,1.283,0,0,1-1.281-1.282v-55.2a1.284,1.284,0,0,1,1.281-1.282h24.357A1.285,1.285,0,0,1,176.416,35.316ZM168.335,44.6a5.38,5.38,0,1,0-5.381,5.378A5.38,5.38,0,0,0,168.335,44.6Zm0,25.233a5.38,5.38,0,1,0-5.381,5.378A5.381,5.381,0,0,0,168.335,69.83Z"></path><path class="c" d="M52.258,127.434v55.195a1.283,1.283,0,0,1-1.281,1.282H26.62a1.284,1.284,0,0,1-1.282-1.282V127.434a1.282,1.282,0,0,1,1.282-1.282H50.977A1.281,1.281,0,0,1,52.258,127.434Zm-4.845,50.682v-22.99H28.983v22.99Zm0-26.68v-8.324H28.983v8.324Zm0-12.015V131.1H28.983v8.323Z"></path><path class="c" d="M106.728,23.3V78.5a1.285,1.285,0,0,1-1.282,1.286H81.089A1.285,1.285,0,0,1,79.808,78.5V23.3a1.283,1.283,0,0,1,1.281-1.282h24.357A1.283,1.283,0,0,1,106.728,23.3Z"></path><path class="c" d="M36.241,35.316v55.2A1.284,1.284,0,0,1,34.955,91.8H10.6a1.281,1.281,0,0,1-1.281-1.282v-55.2A1.281,1.281,0,0,1,10.6,34.034H34.955A1.285,1.285,0,0,1,36.241,35.316ZM33.006,50.647A10.227,10.227,0,1,0,22.779,60.873,10.227,10.227,0,0,0,33.006,50.647Z"></path><path class="a" d="M140.759,36.517a1.844,1.844,0,1,1-1.841,1.841A1.842,1.842,0,0,1,140.759,36.517Z"></path><circle class="a" cx="140.759" cy="54.38" r="1.842"></circle><circle class="a" cx="140.759" cy="62.391" r="1.842"></circle><path class="a" d="M140.759,68.556a1.844,1.844,0,1,1-1.841,1.845A1.842,1.842,0,0,1,140.759,68.556Z"></path><path class="a" d="M62.088,146.378a1.844,1.844,0,1,1-1.842,1.846A1.845,1.845,0,0,1,62.088,146.378Z"></path><path class="a" d="M62.088,162.4a1.842,1.842,0,1,1-1.842,1.841A1.844,1.844,0,0,1,62.088,162.4Z"></path><path class="a" d="M103.736,113.578a12.621,12.621,0,0,0,4.385-.312c3.185-.846,4.988-4.243,4.988-4.243a23.21,23.21,0,0,0,3.884,4.208L102.778,115.2a12.827,12.827,0,0,0,.954-1.56Z"></path><path class="b" d="M97.879,102.386c3.637-5.084,12.937-12.967,19.157-13.6,1.679-.173,9.7,3.34,15.963,6.143,0,0,14.6-.522,16.609,1.745,8.331,9.377,15.631,35.027,17.056,37.876s21.959,14.315,28.765,17.836v41.486l-40.112-24.268a31.525,31.525,0,0,1-7.663,0c-21.546-4.184-50.419-25.989-56.01-28.58-4.107-1.9-5.084-5.875-5.6-8.543a14.342,14.342,0,0,0-.51-2.224,7.2,7.2,0,0,0-1.386-1.926c-.676-.742-1.486-1.51-2.208-2.224a15.459,15.459,0,0,1-1.579-1.753,4.928,4.928,0,0,1-.2-5.447,8.182,8.182,0,0,1,1.421-1.876c1.988-1.992,6.76-.29,6.953-.224a8.7,8.7,0,0,1,1.6-4.019c3.023-4.691,3.706-7.246,4.749-8.629a3.12,3.12,0,0,1,1.328-1.05C96.6,102.942,97.18,102.691,97.879,102.386Zm5.857,11.192,0,.066a12.827,12.827,0,0,1-.954,1.56,12.221,12.221,0,0,1-5.625,4.555c-.289.1-.594.189-.9.267a20.4,20.4,0,0,1,3.146,4.235,10.127,10.127,0,0,1,.587,1.251s11.073,6.844,12.856,7.833c0,0,11.373-6.034,14.84-7.718,0,0-3.714-3.806-4.517-4.814l17.327-2.405,4.528-.672,2.023-.3a4.179,4.179,0,0,0-1.216-8.269l-2.027.3a.11.11,0,0,0-.023,0l-4.5.668-22.276,3.092a23.21,23.21,0,0,1-3.884-4.208s-1.8,3.4-4.988,4.243A12.621,12.621,0,0,1,103.736,113.578Z"></path><path class="d" d="M195.429,152.389c-6.806-3.521-27.341-14.991-28.765-17.836s-8.725-28.5-17.056-37.876C147.6,94.41,133,94.932,133,94.932"></path><path class="d" d="M88.533,116.814l0,0c-.193-.066-4.965-1.768-6.953.224a8.182,8.182,0,0,0-1.421,1.876,4.928,4.928,0,0,0,.2,5.447,15.459,15.459,0,0,0,1.579,1.753c.722.714,1.532,1.482,2.208,2.224a7.2,7.2,0,0,1,1.386,1.926,14.342,14.342,0,0,1,.51,2.224c.517,2.667,1.494,6.64,5.6,8.543,5.591,2.591,34.464,24.4,56.01,28.58a31.525,31.525,0,0,0,7.663,0l40.112,24.268"></path><path class="d" d="M96.242,120.022l.008,0a20.4,20.4,0,0,1,3.146,4.235,10.127,10.127,0,0,1,.587,1.251s11.073,6.844,12.856,7.833c0,0,11.373-6.034,14.84-7.718,0,0-3.714-3.806-4.517-4.814l-.011-.008"></path><path class="d" d="M84.147,128.334s1.174-4.232,2.15-5.34-1.525-3.675-3.123-4.821"></path><path class="d" d="M87.915,129.1c-.6.923-2.1,2.309-1.872,3.382"></path><path class="d" d="M117.036,113.266s-.016-.012-.043-.035a23.21,23.21,0,0,1-3.884-4.208s-1.8,3.4-4.988,4.243a12.621,12.621,0,0,1-4.385.312,12.14,12.14,0,0,1-1.873-.312"></path><path class="d" d="M103.732,113.644a12.827,12.827,0,0,1-.954,1.56,12.221,12.221,0,0,1-5.625,4.555c-.289.1-.594.189-.9.267-.17.038-.34.073-.517.1-3.946.683-7.382-.212-7.2-3.32a8.7,8.7,0,0,1,1.6-4.019c3.023-4.691,3.706-7.247,4.749-8.629a3.12,3.12,0,0,1,1.328-1.05c.4-.17.976-.421,1.675-.726,3.077-1.366,8.567-3.887,12.223-5.8,4.482-2.344,5.907-1.834,8.559-.714s16.2,8.763,16.2,8.763"></path><path class="d" d="M139.991,98.024c-1.278-.517-3.923-1.722-6.992-3.092-6.262-2.8-14.284-6.316-15.963-6.143-6.22.63-15.52,8.513-19.157,13.6"></path><polyline class="d" points="102.778 115.204 116.993 113.231 139.269 110.139"></polyline><polyline class="d" points="140.489 118.408 123.162 120.813 99.759 124.064"></polyline><polyline class="d" points="76.654 121.033 72.152 123.763 75.743 124.689 76.549 124.898 81.796 126.253"></polyline><line class="d" x1="80.151" y1="118.91" x2="76.654" y2="121.033"></line><path class="d" d="M145.017,117.736l-4.528.672a3.968,3.968,0,0,1-3.961-3.641c0-.015,0-.034,0-.046a4.075,4.075,0,0,1,2.745-4.582l4.5-.668"></path><path class="d" d="M145.017,117.736l2.023-.3a4.179,4.179,0,0,0-1.216-8.269l-2.027.3a.11.11,0,0,0-.023,0c-.274.085-2.706.9-2.119,4.8A3.813,3.813,0,0,0,145.017,117.736Z"></path><line class="d" x1="72.152" y1="123.763" x2="69.871" y2="123.983"></line><path class="d" d="M34.974,94.8H10.583a5.155,5.155,0,0,1-5.154-5.154V35.339a5.156,5.156,0,0,1,5.154-5.154H34.974a5.155,5.155,0,0,1,5.154,5.154V89.646A5.155,5.155,0,0,1,34.974,94.8Z"></path><path class="d" d="M34.955,91.8H10.6a1.281,1.281,0,0,1-1.281-1.282v-55.2A1.281,1.281,0,0,1,10.6,34.034H34.955a1.285,1.285,0,0,1,1.286,1.282v55.2A1.284,1.284,0,0,1,34.955,91.8Z"></path><line class="d" x1="15.749" y1="32.073" x2="28.608" y2="32.073"></line><line class="d" x1="30.882" y1="21.904" x2="22.177" y2="21.904"></line><circle class="d" cx="15.776" cy="21.511" r="3.652"></circle><path class="d" d="M51,186.915H26.605a5.153,5.153,0,0,1-5.154-5.154V127.453a5.152,5.152,0,0,1,5.154-5.153H51a5.155,5.155,0,0,1,5.154,5.153v54.308A5.156,5.156,0,0,1,51,186.915Z"></path><path class="d" d="M50.977,183.911H26.62a1.284,1.284,0,0,1-1.282-1.282V127.434a1.282,1.282,0,0,1,1.282-1.282H50.977a1.281,1.281,0,0,1,1.281,1.282v55.195A1.283,1.283,0,0,1,50.977,183.911Z"></path><line class="d" x1="31.766" y1="124.187" x2="44.626" y2="124.187"></line><line class="d" x1="46.904" y1="114.022" x2="38.198" y2="114.022"></line><path class="d" d="M35.445,113.625a3.65,3.65,0,1,1-3.648-3.649A3.649,3.649,0,0,1,35.445,113.625Z"></path><path class="d" d="M105.461,82.782H81.07a5.149,5.149,0,0,1-5.15-5.154v-54.3a5.15,5.15,0,0,1,5.15-5.154h24.391a5.15,5.15,0,0,1,5.154,5.154v54.3A5.149,5.149,0,0,1,105.461,82.782Z"></path><path class="d" d="M105.446,79.783H81.089A1.285,1.285,0,0,1,79.808,78.5V23.3a1.283,1.283,0,0,1,1.281-1.282h24.357a1.283,1.283,0,0,1,1.282,1.282V78.5A1.285,1.285,0,0,1,105.446,79.783Z"></path><line class="d" x1="86.236" y1="20.059" x2="99.095" y2="20.059"></line><line class="d" x1="101.373" y1="9.89" x2="92.667" y2="9.89"></line><path class="d" d="M89.915,9.5a3.651,3.651,0,1,1-3.652-3.652A3.651,3.651,0,0,1,89.915,9.5Z"></path><path class="d" d="M175.149,94.8H150.758a5.155,5.155,0,0,1-5.154-5.154V35.339a5.156,5.156,0,0,1,5.154-5.154h24.391a5.153,5.153,0,0,1,5.154,5.154V89.646A5.152,5.152,0,0,1,175.149,94.8Z"></path><path class="d" d="M175.134,91.8H150.777a1.283,1.283,0,0,1-1.281-1.282v-55.2a1.284,1.284,0,0,1,1.281-1.282h24.357a1.285,1.285,0,0,1,1.282,1.282v55.2A1.284,1.284,0,0,1,175.134,91.8Z"></path><line class="d" x1="155.924" y1="32.073" x2="168.783" y2="32.073"></line><line class="d" x1="171.057" y1="21.904" x2="162.351" y2="21.904"></line><circle class="d" cx="155.951" cy="21.511" r="3.652"></circle><path class="d" d="M63.933,148.224a1.844,1.844,0,1,1-1.845-1.846A1.844,1.844,0,0,1,63.933,148.224Z"></path><path class="d" d="M63.933,164.241a1.844,1.844,0,1,1-1.845-1.841A1.842,1.842,0,0,1,63.933,164.241Z"></path><polyline class="d" points="64.126 164.241 113.546 164.241 113.546 155.03"></polyline><circle class="d" cx="46.07" cy="39.219" r="1.842"></circle><polyline class="d" points="47.911 39.219 62.088 39.219 62.088 97.9 101.705 97.9"></polyline><polyline class="d" points="66.994 123.983 63.933 123.983 63.933 104.162 94.876 104.162 94.88 104.162"></polyline><path class="d" d="M142.6,38.358a1.842,1.842,0,1,1-1.842-1.841A1.843,1.843,0,0,1,142.6,38.358Z"></path><circle class="d" cx="116.731" cy="29.548" r="1.842"></circle><circle class="d" cx="140.759" cy="54.38" r="1.842"></circle><circle class="d" cx="140.759" cy="62.391" r="1.842"></circle><path class="d" d="M142.6,70.4a1.842,1.842,0,1,1-1.842-1.845A1.842,1.842,0,0,1,142.6,70.4Z"></path><polyline class="d" points="116.731 31.39 116.731 54.38 125.417 54.38 138.918 54.38"></polyline><polyline class="d" points="138.918 62.391 132.764 62.391 132.764 94.53"></polyline><polyline class="d" points="138.918 70.401 136.501 70.401 136.501 94.53"></polyline><polyline class="d" points="138.918 38.358 125.417 38.358 125.417 54.38 125.417 91.395"></polyline><circle class="d" cx="22.779" cy="50.647" r="10.227"></circle><line class="d" x1="12.822" y1="66.88" x2="31.535" y2="66.88"></line><line class="d" x1="12.822" y1="72.888" x2="31.535" y2="72.888"></line><line class="d" x1="12.822" y1="78.895" x2="31.535" y2="78.895"></line><rect class="d" x="28.983" y="131.098" width="18.431" height="8.323"></rect><rect class="d" x="28.983" y="143.112" width="18.431" height="8.323"></rect><rect class="d" x="28.983" y="155.126" width="18.431" height="22.99"></rect><path class="d" d="M168.335,44.6a5.38,5.38,0,1,1-5.381-5.378A5.38,5.38,0,0,1,168.335,44.6Z"></path><line class="d" x1="155.375" y1="55.422" x2="170.536" y2="55.422"></line><line class="d" x1="155.375" y1="59.426" x2="170.536" y2="59.426"></line><path class="d" d="M168.335,69.83a5.38,5.38,0,1,1-5.381-5.382A5.38,5.38,0,0,1,168.335,69.83Z"></path><line class="d" x1="155.375" y1="80.651" x2="170.536" y2="80.651"></line><line class="d" x1="155.375" y1="84.659" x2="170.536" y2="84.659"></line><line class="d" x1="63.933" y1="148.224" x2="102.778" y2="148.224"></line></g></g></svg>