<svg xmlns="http://www.w3.org/2000/svg" viewBox="0 0 999 999"><g transform="matrix(2.4975,0,0,2.4975,0,0)"><g transform="matrix(2,0,0,2,0,0)"><defs><style>.a{fill:#ffffff;}.b{fill:#ffffff;}.c{fill:#040bff;}.d{fill:#69D6F9;}.e{fill:none;stroke:#040bff;stroke-linecap:round;stroke-linejoin:round;stroke-width:0.676px;}</style></defs><path class="a" d="M188.415,54.028,180.37,96.117a27.857,27.857,0,0,0-3.5-1.728c.487-3.573.311-5.557-.446-6.683a1.842,1.842,0,0,0,.226-.605,1.925,1.925,0,0,0-3.783-.72c-.01.058-.02.119-.027.176-1.49.669-2.467,2.951-3.451,5.689l-.02.2a28.56,28.56,0,0,0-17.51,3.54c-.409-7.231,2.116-16.723-.112-19.9a1.766,1.766,0,0,0,.23-.608,1.925,1.925,0,1,0-3.793-.068c-5.05,3.029-5.874,21.911-12.449,20.85-6.619-1.072,3.191-27.962-1.721-34.036a1.834,1.834,0,0,0,.3-.724,1.925,1.925,0,1,0-3.782-.723,1.886,1.886,0,0,0-.027.534c-7.285,3.684-7.687,43.028-18.186,41.267-10.31-1.728,1.105-32.86-3.945-39.036a1.8,1.8,0,0,0,.085-.3,1.927,1.927,0,1,0-3.786-.723,2.06,2.06,0,0,0-.031.277C97.5,65.934,93.544,91.641,89.376,91.087L99.7,37.069Zm-65.189-7.713a2.072,2.072,0,1,0-2.424,1.646A2.079,2.079,0,0,0,123.226,46.315Zm-8.67-1.66a2.072,2.072,0,1,0-2.424,1.646A2.072,2.072,0,0,0,114.556,44.655ZM105.888,43a2.071,2.071,0,1,0-2.423,1.647A2.075,2.075,0,0,0,105.888,43Z"></path><path class="b" d="M186.2,100.612a28.564,28.564,0,0,1-40.4,40.4l20.2-20.2Z"></path><path class="c" d="M186.2,100.612,166,120.81l-20.2-20.2a28.6,28.6,0,0,1,31.072-6.223,27.857,27.857,0,0,1,3.5,1.728v0A28.5,28.5,0,0,1,186.2,100.612Z"></path><path class="a" d="M176.429,87.706c.757,1.126.933,3.11.446,6.683a28.463,28.463,0,0,0-7.5-1.944l.02-.2c.984-2.738,1.961-5.02,3.451-5.689a1.926,1.926,0,0,0,3.584,1.149Z"></path><path class="c" d="M175.124,84.85a1.925,1.925,0,0,1,1.531,2.251,1.842,1.842,0,0,1-.226.605,3.176,3.176,0,0,0-1.985-1.264,2.362,2.362,0,0,0-1.6.115c.007-.057.017-.118.028-.176A1.922,1.922,0,0,1,175.124,84.85Z"></path><path class="c" d="M176.429,87.706a1.926,1.926,0,0,1-3.584-1.149,2.362,2.362,0,0,1,1.6-.115A3.176,3.176,0,0,1,176.429,87.706Z"></path><path class="d" d="M166,120.81l-20.2,20.2a28.556,28.556,0,0,1,0-40.4Z"></path><path class="c" d="M150.451,73.228a1.923,1.923,0,0,1,1.531,2.252,1.766,1.766,0,0,1-.23.608,2.391,2.391,0,0,0-1.484-1.007,2.706,2.706,0,0,0-2.078.331,1.922,1.922,0,0,1,2.261-2.184Z"></path><path class="a" d="M151.752,76.088c2.228,3.174-.3,12.666.112,19.9a28.607,28.607,0,0,0-14.049,20.173l-17.79-3.4-33.567-6.416,2.583-13.518.335-1.737c4.168.554,8.123-25.153,15.275-28.29a1.926,1.926,0,0,0,3.732.747c5.05,6.176-6.365,37.308,3.945,39.036,10.5,1.761,10.9-37.583,18.186-41.267a1.923,1.923,0,0,0,3.5.913c4.912,6.074-4.9,32.964,1.721,34.036,6.575,1.061,7.4-17.821,12.45-20.85a1.922,1.922,0,0,0,3.562.676Z"></path><path class="c" d="M150.268,75.081a2.391,2.391,0,0,1,1.484,1.007,1.922,1.922,0,0,1-3.562-.676A2.706,2.706,0,0,1,150.268,75.081Z"></path><path class="c" d="M132.792,59.248a1.93,1.93,0,0,1,1.532,2.254,1.85,1.85,0,0,1-.305.724,3.118,3.118,0,0,0-1.9-1.143,2.459,2.459,0,0,0-1.609.23,1.886,1.886,0,0,1,.027-.534A1.924,1.924,0,0,1,132.792,59.248Z"></path><path class="c" d="M134.019,62.226a1.923,1.923,0,0,1-3.5-.913,2.459,2.459,0,0,1,1.609-.23A3.118,3.118,0,0,1,134.019,62.226Z"></path><path class="b" d="M121.58,43.887a2.074,2.074,0,1,1-2.424,1.647A2.079,2.079,0,0,1,121.58,43.887Z"></path><path class="b" d="M112.909,42.231a2.072,2.072,0,1,1-2.423,1.646A2.072,2.072,0,0,1,112.909,42.231Z"></path><polygon class="d" points="106.186 131.687 112.348 164.351 107.454 165.274 101.295 132.61 106.186 131.687"></polygon><path class="c" d="M106.936,60.988a1.93,1.93,0,0,1,1.532,2.255,1.8,1.8,0,0,1-.085.3,2.764,2.764,0,0,0-1.761-1.018,3.47,3.47,0,0,0-1.971.271,2.06,2.06,0,0,1,.031-.277A1.928,1.928,0,0,1,106.936,60.988Z"></path><path class="c" d="M106.622,62.526a2.764,2.764,0,0,1,1.761,1.018,1.926,1.926,0,0,1-3.732-.747A3.47,3.47,0,0,1,106.622,62.526Z"></path><rect class="b" x="99.581" y="114.285" width="4.979" height="18.028" transform="translate(-21.089 21.061) rotate(-10.684)"></rect><path class="b" d="M104.242,40.575a2.072,2.072,0,1,1-2.423,1.646A2.075,2.075,0,0,1,104.242,40.575Z"></path><polygon class="d" points="95.917 153.261 98.502 166.961 98.502 166.964 93.611 167.884 91.025 154.183 95.917 153.261"></polygon><rect class="b" x="87.528" y="116.727" width="4.979" height="37.323" transform="translate(-23.54 19.036) rotate(-10.684)"></rect><polygon class="d" points="80.009 144.925 84.657 169.574 79.765 170.497 75.114 145.848 80.005 144.925 80.009 144.925"></polygon><polygon class="b" points="75.155 119.194 80.009 144.925 80.005 144.925 75.114 145.848 70.26 120.117 75.155 119.194"></polygon><path class="b" d="M73.576,39.987a26.293,26.293,0,0,1-1.2,16.935,48.26,48.26,0,0,0-2.951,28.732l.105.508a5.038,5.038,0,0,1-3.6,5.9l-.829.216-.01-.037L55.14,54.262c-.723,3.88-2.914,3.86-4.77,2.494,1.211-2.738.964-7.166-1.555-6.507-2.687.7-.851,4.736,1.555,6.507-.943,2.137-2.775,3.245-5.1.092l9.949,37.984.01.034-.642.169a5.152,5.152,0,0,1-1.227.152,5.043,5.043,0,0,1-4.8-3.532A49.015,49.015,0,0,0,31.765,67.58,26.452,26.452,0,1,1,73.576,39.987Z"></path><path class="d" d="M71.024,98.635a2.524,2.524,0,0,1-1.808,3.093L56.644,105.02a2.534,2.534,0,0,1-3.093-1.812,2.5,2.5,0,0,1-.084-.642,2.538,2.538,0,0,1,1.893-2.451l12.571-3.292a2.551,2.551,0,0,1,1.653.125A2.525,2.525,0,0,1,71.024,98.635Z"></path><rect class="d" x="65.359" y="167.1" width="4.979" height="5.601" transform="translate(-30.307 15.514) rotate(-10.678)"></rect><path class="d" d="M69.777,101.623a5.143,5.143,0,0,1,.165,1.288,5.073,5.073,0,0,1-3.786,4.9l-4.242,1.109a5.065,5.065,0,0,1-6.189-3.62Z"></path><polygon class="b" points="61.309 121.807 69.773 166.684 64.882 167.607 56.414 122.73 61.309 121.807"></polygon><path class="d" d="M69.733,93.689a2.623,2.623,0,0,1,.081.643,2.536,2.536,0,0,1-1.893,2.454L55.35,100.078a2.51,2.51,0,0,1-2.228-.48h0a2.555,2.555,0,0,1-.947-1.977,2.538,2.538,0,0,1,1.893-2.451l.521-.135.642-.169,9.87-2.583.829-.216.709-.186A2.537,2.537,0,0,1,69.733,93.689Z"></path><path class="b" d="M65.088,92.246l.01.037-9.87,2.583-.01-.034L45.269,56.848c2.326,3.153,4.158,2.045,5.1-.092,1.856,1.366,4.047,1.386,4.77-2.494Z"></path><path class="b" d="M48.815,50.249c2.519-.659,2.766,3.769,1.555,6.507C47.964,54.985,46.128,50.952,48.815,50.249Z"></path><path class="d" d="M43.985,137.677a12.387,12.387,0,0,1-9.874,14.465l-.642-3.411a8.914,8.914,0,0,0,4.053-15.61l2.332-2.566A12.317,12.317,0,0,1,43.985,137.677Z"></path><path class="b" d="M39.854,130.555l-2.332,2.566A8.91,8.91,0,0,0,23.3,142.6l-.055.017-3.366.636c-.092-.325-.166-.653-.23-.987a12.381,12.381,0,0,1,20.207-11.713Z"></path><polygon class="c" points="36.795 172.907 37.833 178.407 28.561 180.158 27.523 174.654 36.795 172.907"></polygon><polygon class="c" points="35.25 164.706 36.288 170.206 27.012 171.957 25.975 166.454 35.25 164.706"></polygon><path class="b" d="M34.828,108.732a2.48,2.48,0,1,1-2.9-1.981A2.482,2.482,0,0,1,34.828,108.732Z"></path><polygon class="c" points="33.702 156.506 34.74 162.005 25.464 163.756 24.427 158.253 33.702 156.506"></polygon><path class="c" d="M33.469,148.731l.642,3.411a12.383,12.383,0,0,1-14.234-8.887l3.366-.636.055-.017A8.917,8.917,0,0,0,33.469,148.731Z"></path><path class="b" d="M24.443,110.689a2.48,2.48,0,1,1-2.9-1.977A2.481,2.481,0,0,1,24.443,110.689Z"></path><path class="b" d="M14.059,112.65a2.48,2.48,0,1,1-2.9-1.981A2.48,2.48,0,0,1,14.059,112.65Z"></path><path class="e" d="M65.927,92.067a5.038,5.038,0,0,0,3.6-5.9l-.105-.508a48.26,48.26,0,0,1,2.951-28.732A26.451,26.451,0,1,0,31.765,67.58a49.015,49.015,0,0,1,16.79,24.075,5.043,5.043,0,0,0,4.8,3.532,5.152,5.152,0,0,0,1.227-.152"></path><path class="e" d="M53.119,99.6a2.555,2.555,0,0,1-.947-1.977,2.538,2.538,0,0,1,1.893-2.451l.521-.135.642-.169,9.87-2.583.829-.216.709-.186a2.537,2.537,0,0,1,3.1,1.808,2.623,2.623,0,0,1,.081.643,2.536,2.536,0,0,1-1.893,2.454L55.35,100.078a2.51,2.51,0,0,1-2.228-.48"></path><line class="e" x1="55.14" y1="54.262" x2="65.088" y2="92.246"></line><path class="e" d="M50.37,56.756c1.856,1.366,4.047,1.386,4.77-2.494"></path><path class="e" d="M50.37,56.756c1.211-2.738.964-7.166-1.555-6.507C46.128,50.952,47.964,54.985,50.37,56.756Z"></path><path class="e" d="M55.218,94.832,45.269,56.848c2.326,3.153,4.158,2.045,5.1-.092"></path><path class="e" d="M69.584,96.948a2.537,2.537,0,0,1-.368,4.78L56.644,105.02a2.534,2.534,0,0,1-3.093-1.812,2.5,2.5,0,0,1-.084-.642,2.538,2.538,0,0,1,1.893-2.451l12.571-3.292A2.551,2.551,0,0,1,69.584,96.948Z"></path><path class="e" d="M66.156,107.812l-4.242,1.109a5.065,5.065,0,0,1-6.189-3.62l14.052-3.678a5.143,5.143,0,0,1,.165,1.288A5.073,5.073,0,0,1,66.156,107.812Z"></path><path class="e" d="M180.37,96.12a28.285,28.285,0,1,1-3.5-1.731,27.857,27.857,0,0,1,3.5,1.728"></path><polyline class="e" points="69.439 96.522 69.503 96.509 89.041 92.824"></polyline><polyline class="e" points="120.025 112.758 130.98 170.845 20.215 191.742 4.564 108.759 53.119 99.598 53.122 99.598"></polyline><line class="e" x1="18.491" y1="118.937" x2="84.369" y2="106.508"></line><path class="e" d="M14.059,112.65a2.48,2.48,0,1,1-2.9-1.981A2.48,2.48,0,0,1,14.059,112.65Z"></path><path class="e" d="M24.443,110.689a2.48,2.48,0,1,1-2.9-1.977A2.481,2.481,0,0,1,24.443,110.689Z"></path><path class="e" d="M34.828,108.732a2.48,2.48,0,1,1-2.9-1.981A2.482,2.482,0,0,1,34.828,108.732Z"></path><polyline class="e" points="137.815 116.158 120.025 112.758 86.458 106.342 89.041 92.824 89.376 91.087 99.699 37.069 188.415 54.028 180.37 96.117 180.37 96.12"></polyline><line class="e" x1="107.714" y1="48.454" x2="178.298" y2="61.945"></line><path class="e" d="M105.888,43a2.071,2.071,0,1,1-1.646-2.423A2.071,2.071,0,0,1,105.888,43Z"></path><path class="e" d="M114.556,44.655a2.072,2.072,0,1,1-1.647-2.424A2.069,2.069,0,0,1,114.556,44.655Z"></path><path class="e" d="M123.226,46.315a2.072,2.072,0,1,1-1.646-2.428A2.076,2.076,0,0,1,123.226,46.315Z"></path><path class="e" d="M176.429,87.706c.757,1.126.933,3.11.446,6.683"></path><path class="e" d="M169.394,92.246c.984-2.738,1.961-5.02,3.451-5.689"></path><path class="e" d="M151.752,76.088c2.228,3.174-.3,12.666.112,19.9"></path><path class="e" d="M134.019,62.226c4.912,6.074-4.9,32.964,1.721,34.036,6.575,1.061,7.4-17.821,12.45-20.85"></path><path class="e" d="M108.383,63.544c5.05,6.176-6.365,37.308,3.945,39.036,10.5,1.761,10.9-37.583,18.186-41.267"></path><path class="e" d="M89.376,91.087c4.168.554,8.123-25.153,15.275-28.29"></path><path class="e" d="M39.854,130.555a12.382,12.382,0,1,1-19.977,12.7c-.092-.325-.166-.653-.23-.987a12.381,12.381,0,0,1,20.207-11.713Z"></path><path class="e" d="M37.522,133.121a8.917,8.917,0,1,1-7.359-1.91A8.865,8.865,0,0,1,37.522,133.121Z"></path><line class="e" x1="33.469" y1="148.731" x2="34.111" y2="152.142"></line><line class="e" x1="37.522" y1="133.121" x2="39.854" y2="130.555"></line><polyline class="e" points="23.243 142.619 19.877 143.255 19.836 143.262"></polyline><polyline class="e" points="112.348 164.351 122.553 162.425 113.254 113.126"></polyline><line class="e" x1="98.502" y1="166.961" x2="107.454" y2="165.274"></line><line class="e" x1="93.611" y1="167.884" x2="98.502" y2="166.964"></line><line class="e" x1="84.657" y1="169.574" x2="93.611" y2="167.887"></line><line class="e" x1="70.811" y1="172.187" x2="79.765" y2="170.497"></line><line class="e" x1="56.658" y1="174.857" x2="65.92" y2="173.11"></line><polygon class="e" points="34.74 162.005 25.464 163.756 24.427 158.253 33.702 156.506 34.74 162.005"></polygon><polygon class="e" points="36.288 170.206 27.012 171.957 25.975 166.454 35.25 164.706 36.288 170.206"></polygon><polygon class="e" points="37.833 178.407 28.561 180.158 27.523 174.654 36.795 172.907 37.833 178.407"></polygon><polygon class="e" points="70.811 172.187 65.92 173.11 64.882 167.607 56.414 122.73 61.309 121.807 69.773 166.684 70.811 172.187"></polygon><polygon class="e" points="84.657 169.574 79.765 170.497 75.114 145.848 70.26 120.117 75.155 119.194 80.009 144.925 84.657 169.574"></polygon><polygon class="e" points="98.502 166.964 93.611 167.887 93.611 167.884 91.025 154.183 84.106 117.507 88.997 116.584 95.917 153.261 98.502 166.961 98.502 166.964"></polygon><polygon class="e" points="112.348 164.351 107.454 165.274 101.295 132.61 97.951 114.894 102.843 113.971 106.186 131.687 112.348 164.351"></polygon><line class="e" x1="64.882" y1="167.607" x2="69.773" y2="166.684"></line><line class="e" x1="75.114" y1="145.848" x2="80.005" y2="144.925"></line><line class="e" x1="91.025" y1="154.183" x2="95.917" y2="153.261"></line><line class="e" x1="101.295" y1="132.61" x2="106.186" y2="131.687"></line><polyline class="e" points="186.198 100.612 166 120.81 145.803 141.007"></polyline><line class="e" x1="145.803" y1="100.612" x2="166" y2="120.81"></line><line class="e" x1="39.624" y1="16.69" x2="37.18" y2="7.63"></line><line class="e" x1="50.215" y1="16.69" x2="51.202" y2="8.567"></line><line class="e" x1="30.274" y1="22.923" x2="24.893" y2="16.69"></line></g></g></svg>